# xmcd
# 
# Track frame offsets:
#     150
#     13287
#     23537
#     33235
#     42810
#     56542
#     69205
#     82685
#     95787
#     106247
#     117907
#     129107
#     139030
# 
# Disc length: 2052
# 
# Revision: 2
# Processed by: cddbd v1.5.2PL0 Copyright (c) Steve Scherf et al.
# Submitted via: BonkEnc v1.0.8
# 
DISCID=9708020d
DTITLE=Tom T. Hall - Loves Lost And Found
DYEAR=0
DGENRE=Country
TTITLE0=Souvenirs
TTITLE1=Love Letters In The Sand
TTITLE2=I Love
TTITLE3=Old Enough To Want To
TTITLE4=Back When We Were Young
TTITLE5=It's All In The Game
TTITLE6=Negatory Romance
TTITLE7=We're All Through Dancing
TTITLE8=Your Man Loves You Honey
TTITLE9=Do It To Someone You Love
TTITLE10=P.S. I Love You
TTITLE11=Country Is
TTITLE12=One Of The Mysteries Of Life
EXTD=
EXTT0=
EXTT1=
EXTT2=
EXTT3=
EXTT4=
EXTT5=
EXTT6=
EXTT7=
EXTT8=
EXTT9=
EXTT10=
EXTT11=
EXTT12=
PLAYORDER=
